<svg id="图层_1" data-name="图层 1" xmlns="http://www.w3.org/2000/svg" xmlns:xlink="http://www.w3.org/1999/xlink" viewBox="0 0 108.23 20.88"><defs><clipPath id="clip-path" transform="translate(0 0)"><rect y="0.07" width="7.26" height="20.66" fill="none"/></clipPath><clipPath id="clip-path-2" transform="translate(0 0)"><rect width="108.22" height="20.87" fill="none"/></clipPath></defs><title>gese_logo2</title><path d="M32.2,20.77c-1.14,0-2-.56-2.14-1.33l-2.19-17a1.78,1.78,0,0,1,.43-1.36,3,3,0,0,1,2-1l.4,0a2.3,2.3,0,0,1,2.5,1.82l.85,10c.09,1-.91,1.84-2.27,2h-.35a3,3,0,0,1-1.18-.22l.26,2.06a3.18,3.18,0,0,1,1.42-.49h.35c1.2,0,2.11.6,2.19,1.43l.2,2.38c.07.87-.87,1.64-2.15,1.76Zm-1.35-2.5L31,19.33c0,.26.53.55,1.21.55h.24c.78-.08,1.33-.48,1.31-.8L33.65,18a3,3,0,0,1-1.37.45l-.33,0a3.15,3.15,0,0,1-1.1-.2Zm1.43-2.19H32a2,2,0,0,0-1.09.42.49.49,0,0,0-.13.12.42.42,0,0,0-.12.34.62.62,0,0,0,.4.42,1.82,1.82,0,0,0,.86.18h.24a2.09,2.09,0,0,0,1.05-.38.58.58,0,0,0,.3-.48.57.57,0,0,0-.34-.41A1.83,1.83,0,0,0,32.28,16.08ZM29,3.89l1.08,8.36c.05.4.65.71,1.36.71h.25c.9-.09,1.48-.61,1.45-1l-.72-8.41a3.25,3.25,0,0,1-1.66.65l-.39,0A3.26,3.26,0,0,1,29,3.89ZM30.71.94l-.29,0A2.12,2.12,0,0,0,29,1.64a1.28,1.28,0,0,0-.15.25.77.77,0,0,0,.12.88,1.8,1.8,0,0,0,1.37.53h.28a2,2,0,0,0,1.52-.88.8.8,0,0,0,.12-.48,1,1,0,0,0-.17-.42A1.79,1.79,0,0,0,30.71.94Z" transform="translate(0 0)" fill="#ffffff"/><path d="M20.89,4.84a.51.51,0,0,0-.17.34.51.51,0,0,1,.17-.34" transform="translate(0 0)" fill="#ffffff"/><path d="M23.23,4.84a.54.54,0,0,1,.16.34.54.54,0,0,0-.16-.34" transform="translate(0 0)" fill="#ffffff"/><path d="M23.11,4.74l.12.1-.12-.1" transform="translate(0 0)" fill="#ffffff"/><path d="M20.89,4.84a.52.52,0,0,1,.11-.1.52.52,0,0,0-.11.1" transform="translate(0 0)" fill="#ffffff"/><path d="M22.06,20.81a2.79,2.79,0,0,1-1.94-.74,1.8,1.8,0,0,1-.58-1.33l.31-17.17c0-.88,1-1.57,2.21-1.57s2.18.69,2.2,1.57l.31,17.17A1.8,1.8,0,0,1,24,20.07,2.78,2.78,0,0,1,22.06,20.81Zm0-3.18a1.69,1.69,0,0,0-1.44.67.82.82,0,0,0-.14.45,1,1,0,0,0,.11.45,1.16,1.16,0,0,0,.2.24,1.94,1.94,0,0,0,2.53,0,1.16,1.16,0,0,0,.2-.24.79.79,0,0,0,.11-.45.82.82,0,0,0-.14-.45A1.67,1.67,0,0,0,22.06,17.63Zm0-4.07c-.8,0-1.5.46-1.5,1l0,2.6a3,3,0,0,1,3.1,0l-.05-2.6C23.55,14,22.86,13.56,22.06,13.56Zm-1.36-7-.12,6.5a3,3,0,0,1,3,0l-.11-6.5a2.94,2.94,0,0,1-1.36.33A2.91,2.91,0,0,1,20.7,6.55Zm1.36-2.14A1.82,1.82,0,0,0,21,4.74a.52.52,0,0,0-.11.1.51.51,0,0,0-.17.35h0a.61.61,0,0,0,.19.4l0,0h0a1.68,1.68,0,0,0,1.1.35,1.65,1.65,0,0,0,1.1-.35h0l0,0a.61.61,0,0,0,.19-.4h0a.56.56,0,0,0-.17-.34.52.52,0,0,0-.11-.1A1.82,1.82,0,0,0,22.06,4.41Zm0-3.51c-.74,0-1.27.36-1.27.69l-.05,2.23a3,3,0,0,1,1.32-.3,2.92,2.92,0,0,1,1.3.3l0-2.23C23.32,1.26,22.8.9,22.06.9Z" transform="translate(0 0)" fill="#ffffff"/><path d="M13.34,20.81c-1.24,0-2.22-.61-2.27-1.41L9.94,2.31A1.84,1.84,0,0,1,10.48.93,3.23,3.23,0,0,1,12.7,0h.15c1.54,0,2.76.92,2.77,2.1l.08,10.7c0,1-1.08,1.74-2.47,1.78h-.12a3.25,3.25,0,0,1-1.44-.31l.13,2a3.17,3.17,0,0,1,1.48-.39h.12c1.32,0,2.32.66,2.33,1.53v1.86c0,.84-1,1.51-2.29,1.54Zm-1.38-2h0l0,.58c0,.24.54.57,1.35.57h.08c.84,0,1.38-.4,1.38-.65v-.59a3.31,3.31,0,0,1-1.42.35h-.11A3.53,3.53,0,0,1,12,18.76Zm1.44-2h-.09a2.26,2.26,0,0,0-1.08.28,1.24,1.24,0,0,0-.23.17.36.36,0,0,0-.12.27c0,.16.18.33.47.45a2.44,2.44,0,0,0,.93.18h.08a2.45,2.45,0,0,0,1-.24c.27-.14.44-.32.44-.47s-.15-.3-.39-.43A2.21,2.21,0,0,0,13.4,16.77ZM11,3.85l.6,9.07c0,.38.65.78,1.53.78h.1c.92,0,1.56-.49,1.56-.88l-.07-9.1a3.35,3.35,0,0,1-1.84.59h-.14A3.28,3.28,0,0,1,11,3.85ZM12.84.91h-.11a2.26,2.26,0,0,0-1.56.62,1.15,1.15,0,0,0-.2.29.83.83,0,0,0-.09.44.91.91,0,0,0,.16.45,2.08,2.08,0,0,0,1.67.71h.11a2.1,2.1,0,0,0,1.73-.84.85.85,0,0,0,.13-.47.82.82,0,0,0-.12-.43A2,2,0,0,0,12.84.91Z" transform="translate(0 0)" fill="#ffffff"/><path d="M0,.08H7.26V20.74H0Z" transform="translate(0 0)" fill="none"/><g clip-path="url(#clip-path)"><path d="M2.74,20.74a3.11,3.11,0,0,1-.43,0,2.88,2.88,0,0,1-1.89-1A1.94,1.94,0,0,1,0,18.16l.63-3.6A2.27,2.27,0,0,1,3,12.92l.43,0a2.93,2.93,0,0,1,1.47.62l.25-2.1a2.92,2.92,0,0,1-1.53.19,2.71,2.71,0,0,1-1.78-.95,1.54,1.54,0,0,1-.32-1.2L3,1.27A1.78,1.78,0,0,1,4.9.07l.42,0C6.5.26,7.35,1,7.25,1.84l-2,17A2.38,2.38,0,0,1,2.74,20.74Zm-.23-3.46a1.68,1.68,0,0,0-1.37.59,1,1,0,0,0-.2.44,1.08,1.08,0,0,0,0,.44,1.2,1.2,0,0,0,.2.39,1.91,1.91,0,0,0,1.27.68l.3,0a1.65,1.65,0,0,0,1.41-.66,1.06,1.06,0,0,0,.15-.42.94.94,0,0,0-.06-.47,1.76,1.76,0,0,0-1.44-1,2.58,2.58,0,0,0-.29,0Zm0-.9a3.11,3.11,0,0,1,.43,0,3,3,0,0,1,1.56.68l.24-2c.07-.6-.57-1.18-1.42-1.3l-.3,0a1.35,1.35,0,0,0-1.45.89l-.34,2a3,3,0,0,1,1.28-.28ZM3.73,8.94a1.64,1.64,0,0,0-1,.29.69.69,0,0,0-.29.42.58.58,0,0,0,.11.46l0,.06a1.72,1.72,0,0,0,1.15.59,1.51,1.51,0,0,0,.3,0,1.54,1.54,0,0,0,1-.33A.62.62,0,0,0,5.34,10a.65.65,0,0,0-.16-.48A1.78,1.78,0,0,0,4,9h-.3Zm0-.9a3.11,3.11,0,0,1,.43,0,2.89,2.89,0,0,1,1.35.53l.81-6.86c0-.28-.44-.66-1.12-.75L4.9,1c-.57,0-1,.24-1,.45L2.71,8.23a3,3,0,0,1,1-.18Z" transform="translate(0 0)" fill="#ffffff"/></g><path d="M0,20.87H108.22V0H0Z" transform="translate(0 0)" fill="none"/><g clip-path="url(#clip-path-2)"><path d="M65.84,13.58H59a2,2,0,0,1-2-1.87V4.78h-.43a.09.09,0,0,1-.08,0,.1.1,0,0,1,0-.09L58.8,1.1a.37.37,0,0,1,.3-.16h2.18a.12.12,0,0,1,.08,0,.14.14,0,0,1,0,.09L61,1.62h5.47a.18.18,0,0,1,.18.17V3.13a.37.37,0,0,1-.07.2c-.21.27-.64.81-1.12,1.36h2.17a.18.18,0,0,1,.17.17V9.22a.17.17,0,0,1-.17.17H59.08v1.85a.35.35,0,0,0,.35.34h6.44a1.33,1.33,0,0,0,.16-.73h2.14A3.12,3.12,0,0,1,67.44,13,2.17,2.17,0,0,1,65.84,13.58ZM63.44,6.4V7.68h2.22V6.4Zm-4.36,0V7.68H61.3V6.4Zm.83-3.16-1,1.46h3.85A14.2,14.2,0,0,0,64,3.57h0v0h0l.29-.29h-4.4Z" transform="translate(0 0)" fill="#ffffff"/><path d="M52.14,13.58H42.71a.18.18,0,0,1-.18-.17V8.71a.17.17,0,0,1,.18-.17h9.43a.17.17,0,0,1,.18.17v4.7A.19.19,0,0,1,52.14,13.58Zm-7.47-3.5v2h5.51v-2Z" transform="translate(0 0)" fill="#ffffff"/><path d="M53.56,8.68h0a32.45,32.45,0,0,1-6.26-1.1A32,32,0,0,1,41.4,8.65h0a.19.19,0,0,1-.13-.05.18.18,0,0,1,0-.12V6.93a.17.17,0,0,1,.16-.17c.89-.09,2.22-.25,3.5-.5a10.64,10.64,0,0,1-1.52-1.48H41.66a.09.09,0,0,1-.08,0,.07.07,0,0,1,0-.09L44,1.1a.37.37,0,0,1,.3-.16h2.17a.1.1,0,0,1,.08,0,.14.14,0,0,1,0,.09l-.37.55h5.92a.18.18,0,0,1,.18.17h0V3.24a.34.34,0,0,1,0,.17,12.65,12.65,0,0,1-2.47,2.84c1.64.33,3.38.5,3.87.55a.17.17,0,0,1,.16.17V8.51a.17.17,0,0,1-.18.17ZM45,3.33l-.16.24a7.49,7.49,0,0,0,2.45,2,7.59,7.59,0,0,0,2.58-2.23Z" transform="translate(0 0)" fill="#ffffff"/><path d="M76,13.59H71.65a.17.17,0,0,1-.18-.17h0V1.68a.19.19,0,0,1,.18-.18H76a4.68,4.68,0,0,1,3.32,1.16C80.64,3.9,80.63,5.43,80.62,7V8c0,1.67,0,3.24-1.27,4.49A4.67,4.67,0,0,1,76,13.59Zm-2.09-10h0v7.88h1.86a2.24,2.24,0,0,0,1.84-.75c.46-.54.53-1.4.53-3.24s-.08-2.61-.53-3.14a2.24,2.24,0,0,0-1.84-.75Z" transform="translate(0 0)" fill="#ffffff"/><path d="M91.89,13.44,87,6.17v7.25a.18.18,0,0,1-.17.18H84.72a.19.19,0,0,1-.18-.18V1.68a.18.18,0,0,1,.18-.17h1.82a.32.32,0,0,1,.3.15l4.89,7.25V1.68a.16.16,0,0,1,.17-.17H94a.17.17,0,0,1,.18.17h0V13.42a.18.18,0,0,1-.17.18H92.18a.38.38,0,0,1-.3-.16" transform="translate(0 0)" fill="#ffffff"/><path d="M108.14,13.59H106a.35.35,0,0,1-.34-.23L105,11.45h-4.48l-.68,1.91a.33.33,0,0,1-.33.23H97.28a.09.09,0,0,1-.07,0,.08.08,0,0,1,0-.08l4.47-11.81a.27.27,0,0,1,.25-.17h1.56a.27.27,0,0,1,.25.17l4.49,11.81a.06.06,0,0,1,0,.07A.08.08,0,0,1,108.14,13.59Zm-5.38-8.52-1.59,4.4h3.13Z" transform="translate(0 0)" fill="#ffffff"/><path d="M85.2,20.81H83.52a.07.07,0,0,1-.06-.07h0V16.25a.07.07,0,0,1,.06-.07H85.2a1.84,1.84,0,0,1,1.27.44A2.1,2.1,0,0,1,87,18.3v.35a2.2,2.2,0,0,1-.49,1.72A1.84,1.84,0,0,1,85.2,20.81ZM84.4,17v3h.71a.89.89,0,0,0,.7-.28c.17-.21.2-.54.2-1.25s0-1-.2-1.2a.89.89,0,0,0-.7-.28Z" transform="translate(0 0)" fill="#ffffff"/><path d="M96.6,20.75,94.73,18v2.77a.08.08,0,0,1-.07.07h-.81a.07.07,0,0,1-.06-.07h0V16.25a.07.07,0,0,1,.06-.07h.7a.14.14,0,0,1,.12.06L96.53,19V16.25a.07.07,0,0,1,.07-.07h.8a.07.07,0,0,1,.07.06h0v4.5a.07.07,0,0,1-.07.06h-.7a.13.13,0,0,1-.11-.06" transform="translate(0 0)" fill="#ffffff"/><path d="M108.13,20.81h-.83a.14.14,0,0,1-.13-.09l-.26-.73H105.2l-.26.73a.14.14,0,0,1-.13.09H104l0,0a0,0,0,0,1,0,0l1.71-4.52a.1.1,0,0,1,.09-.06h.6a.11.11,0,0,1,.1.06l1.71,4.52a0,0,0,0,1,0,0S108.14,20.81,108.13,20.81Zm-2.06-3.27-.6,1.69h1.2Z" transform="translate(0 0)" fill="#ffffff"/><path d="M43.54,20.86A1.87,1.87,0,0,1,41.63,19h0V17.9a1.85,1.85,0,0,1,1.65-1.82,1.89,1.89,0,0,1,2,1.11.1.1,0,0,1,0,.11h0l-.74.25a.08.08,0,0,1-.1-.05,1,1,0,0,0-1-.52.92.92,0,0,0-.83.91V19a.93.93,0,0,0,.89.92.92.92,0,0,0,1-.87V19h-.86s-.08,0-.08-.08v-.74a.08.08,0,0,1,.08-.08H45.3s.08,0,.08.08h0v.85a1.83,1.83,0,0,1-1.84,1.8" transform="translate(0 0)" fill="#ffffff"/><path d="M55.35,17v-.75a.07.07,0,0,0-.08-.08H52.59a.08.08,0,0,0-.08.08V20.7a.09.09,0,0,0,.08.09h2.68s.08,0,.09-.09h0V20a.09.09,0,0,0-.09-.09H53.46V19h1.81s.08,0,.09-.08h0v-.74a.09.09,0,0,0-.08-.09H53.46v-1h1.81a.08.08,0,0,0,.08-.08h0" transform="translate(0 0)" fill="#ffffff"/><path d="M76.29,17v-.75a.08.08,0,0,0-.08-.08H73.36a.08.08,0,0,0-.09.08V20.7a.09.09,0,0,0,.09.09H76.2a.09.09,0,0,0,.09-.09h0V20a.09.09,0,0,0-.08-.09h-2V19h2a.08.08,0,0,0,.09-.08h0v-.74a.08.08,0,0,0-.08-.09h-2v-1h2a.09.09,0,0,0,.09-.08h0" transform="translate(0 0)" fill="#ffffff"/><path d="M64.27,20.87a1.77,1.77,0,0,1-1.69-.78.1.1,0,0,1,0-.12h0l.69-.35a.08.08,0,0,1,.11,0c.1.14.27.3.86.3s.93-.13.93-.5c0-.21-.35-.47-.86-.49h0a1.5,1.5,0,0,1-1.63-1.37v0a1.53,1.53,0,0,1,1.63-1.42h.08a2.2,2.2,0,0,1,1.58.69.08.08,0,0,1,0,.11h0l-.55.53a.09.09,0,0,1-.12,0,1.23,1.23,0,0,0-.91-.43c-.46,0-.76.19-.76.5s.27.48.7.5h.14c1,.07,1.7.66,1.7,1.4s-.58,1.41-1.87,1.41" transform="translate(0 0)" fill="#ffffff"/></g></svg>
