<?xml version="1.0" encoding="UTF-8"?>
<svg width="165px" height="217px" viewBox="0 0 165 217" version="1.1" xmlns="http://www.w3.org/2000/svg" xmlns:xlink="http://www.w3.org/1999/xlink">
    <!-- Generator: Sketch 52.2 (67145) - http://www.bohemiancoding.com/sketch -->
    <title>Group</title>
    <desc>Created with Sketch.</desc>
    <defs>
        <rect id="path-1" x="0" y="0" width="165" height="217"></rect>
        <polygon id="path-3" points="0.000108379043 0.0712698712 82.2034449 0.0712698712 82.2034449 8.29586742 0.000108379043 8.29586742"></polygon>
        <polygon id="path-5" points="0.094560715 0.0712698712 83.1454213 0.0712698712 83.1454213 8.29586742 0.094560715 8.29586742"></polygon>
        <polygon id="path-7" points="0 214.282389 168.387977 214.282389 168.387977 0.544044819 0 0.544044819"></polygon>
    </defs>
    <g id="图标整合" stroke="none" stroke-width="1" fill="none" fill-rule="evenodd">
        <g id="点击分享显示" transform="translate(-14.000000, -370.000000)">
            <g id="Group" transform="translate(14.000000, 370.000000)">
                <mask id="mask-2" fill="white">
                    <use xlink:href="#path-1"></use>
                </mask>
                <use id="Mask" fill="#FFFFFF" xlink:href="#path-1"></use>
                <g mask="url(#mask-2)">
                    <g transform="translate(55.500000, 107.500000) scale(-1, 1) translate(-55.500000, -107.500000) translate(-29.000000, 0.000000)">
                        <g id="Group-3" stroke="none" stroke-width="1" fill="none" fill-rule="evenodd" transform="translate(0.000000, 0.472775)">
                            <mask id="mask-4" fill="white">
                                <use xlink:href="#path-3"></use>
                            </mask>
                            <g id="Clip-2"></g>
                            <path d="M82.2034449,4.18343263 C82.2034449,6.44502694 80.3604592,8.29586742 78.1072589,8.29586742 L4.09575241,8.29586742 C1.843094,8.29586742 0.000108379043,6.44502694 0.000108379043,4.18343263 C0.000108379043,1.92183832 1.843094,0.0709978488 4.09575241,0.0709978488 L78.1072589,0.0709978488 C80.3604592,0.0709978488 82.2034449,1.92183832 82.2034449,4.18343263" id="Fill-1" fill="#50B4FF" mask="url(#mask-4)"></path>
                        </g>
                        <g id="Group-6" stroke="none" stroke-width="1" fill="none" fill-rule="evenodd" transform="translate(81.826177, 0.472775)">
                            <mask id="mask-6" fill="white">
                                <use xlink:href="#path-5"></use>
                            </mask>
                            <g id="Clip-5"></g>
                            <path d="M83.1454213,4.18343263 C83.1454213,6.44502694 81.3024357,8.29586742 79.0492354,8.29586742 L4.19074664,8.29586742 C1.93808824,8.29586742 0.094560715,6.44502694 0.094560715,4.18343263 C0.094560715,1.92183832 1.93808824,0.0709978488 4.19074664,0.0709978488 L79.0492354,0.0709978488 C81.3024357,0.0709978488 83.1454213,1.92183832 83.1454213,4.18343263" id="Fill-4" fill="#008BD8" mask="url(#mask-6)"></path>
                        </g>
                        <mask id="mask-8" fill="white">
                            <use xlink:href="#path-7"></use>
                        </mask>
                        <g id="Clip-8" stroke="none" fill="none"></g>
                        <polygon id="Fill-7" stroke="none" fill="#35B5FC" fill-rule="evenodd" mask="url(#mask-8)" points="13.2769747 8.76837034 20.0566257 8.76837034 20.0566257 0.544044819 13.2769747 0.544044819"></polygon>
                        <polygon id="Fill-9" stroke="none" fill="#35B5FC" fill-rule="evenodd" mask="url(#mask-8)" points="63.841759 8.76837034 70.6214101 8.76837034 70.6214101 0.544044819 63.841759 0.544044819"></polygon>
                        <polygon id="Fill-10" stroke="none" fill="#FFFFFF" fill-rule="evenodd" mask="url(#mask-8)" points="108.474958 8.76837034 111.864513 8.76837034 111.864513 0.544044819 108.474958 0.544044819"></polygon>
                        <polygon id="Fill-11" stroke="none" fill="#35B5FC" fill-rule="evenodd" mask="url(#mask-8)" points="117.514312 8.76837034 122.316588 8.76837034 122.316588 0.544044819 117.514312 0.544044819"></polygon>
                        <polygon id="Fill-14" stroke="none" fill="#35B5FC" fill-rule="evenodd" mask="url(#mask-8)" points="126.553667 8.76837034 139.830641 8.76837034 139.830641 0.544044819 126.553667 0.544044819"></polygon>
                        <polygon id="Fill-15" stroke="none" fill="#008BD8" fill-rule="evenodd" mask="url(#mask-8)" points="6.21499622 8.76837034 9.32222338 8.76837034 9.32222338 0.544044819 6.21499622 0.544044819"></polygon>
                        <polygon id="Fill-16" stroke="none" fill="#008BD8" fill-rule="evenodd" mask="url(#mask-8)" points="21.1864772 8.76837034 23.4467221 8.76837034 23.4467221 0.544044819 21.1864772 0.544044819"></polygon>
                        <polygon id="Fill-17" stroke="none" fill="#008BD8" fill-rule="evenodd" mask="url(#mask-8)" points="24.8589011 8.76837034 28.8136524 8.76837034 28.8136524 0.544044819 24.8589011 0.544044819"></polygon>
                        <polygon id="Fill-18" stroke="none" fill="#008BD8" fill-rule="evenodd" mask="url(#mask-8)" points="34.7457793 8.76837034 56.7797806 8.76837034 56.7797806 0.544044819 34.7457793 0.544044819"></polygon>
                        <path d="M79.1627082,0.543990414 C80.8349969,0.543990414 82.2032823,1.91770358 82.2032823,3.59662589 L82.2032823,5.7162245 C82.2032823,7.39514682 80.8349969,8.76831594 79.1627082,8.76831594 L78.8131858,8.76831594 L78.8131858,0.543990414 L79.1627082,0.543990414 Z" id="Fill-19" stroke="none" fill="#35B5FC" fill-rule="evenodd" mask="url(#mask-8)"></path>
                        <path d="M81.9208465,5.7161157 L81.9208465,3.59651708 C81.9208465,1.91813882 83.28859,0.543881605 84.9608787,0.543881605 L99.7177692,0.543881605 L99.7177692,8.76820713 L84.9608787,8.76820713 C83.28859,8.76820713 81.9208465,7.39503801 81.9208465,5.7161157" id="Fill-20" stroke="none" fill="#35B5FC" fill-rule="evenodd" mask="url(#mask-8)"></path>
                        <path d="M82.2034449,16.1454005 C82.2034449,18.4069948 80.3604592,20.2578352 78.1072589,20.2578352 L4.09575241,20.2578352 C1.843094,20.2578352 0.000108379043,18.4069948 0.000108379043,16.1454005 C0.000108379043,13.8838062 1.843094,12.0329657 4.09575241,12.0329657 L78.1072589,12.0329657 C80.3604592,12.0329657 82.2034449,13.8838062 82.2034449,16.1454005" id="Fill-21" stroke="none" fill="#AEDEFF" fill-rule="evenodd" mask="url(#mask-8)"></path>
                        <path d="M164.971599,16.1454005 C164.971599,18.4069948 163.128613,20.2578352 160.875413,20.2578352 L86.0169241,20.2578352 C83.7642657,20.2578352 81.9207381,18.4069948 81.9207381,16.1454005 C81.9207381,13.8838062 83.7642657,12.0329657 86.0169241,12.0329657 L160.875413,12.0329657 C163.128613,12.0329657 164.971599,13.8838062 164.971599,16.1454005" id="Fill-22" stroke="none" fill="#008BD8" fill-rule="evenodd" mask="url(#mask-8)"></path>
                        <polygon id="Fill-23" stroke="none" fill="#35B5FC" fill-rule="evenodd" mask="url(#mask-8)" points="13.2769747 20.2575088 20.0566257 20.2575088 20.0566257 12.0331833 13.2769747 12.0331833"></polygon>
                        <polygon id="Fill-24" stroke="none" fill="#35B5FC" fill-rule="evenodd" mask="url(#mask-8)" points="63.841759 20.2575088 70.6214101 20.2575088 70.6214101 12.0331833 63.841759 12.0331833"></polygon>
                        <polygon id="Fill-25" stroke="none" fill="#FFFFFF" fill-rule="evenodd" mask="url(#mask-8)" points="108.474958 20.2575088 111.864513 20.2575088 111.864513 12.0331833 108.474958 12.0331833"></polygon>
                        <polygon id="Fill-26" stroke="none" fill="#35B5FC" fill-rule="evenodd" mask="url(#mask-8)" points="117.514312 20.2575088 122.316588 20.2575088 122.316588 12.0331833 117.514312 12.0331833"></polygon>
                        <polygon id="Fill-28" stroke="none" fill="#FF6600" fill-rule="evenodd" mask="url(#mask-8)" points="72.5993276 20.2575088 76.8364063 20.2575088 76.8364063 12.0331833 72.5993276 12.0331833"></polygon>
                        <polygon id="Fill-30" stroke="none" fill="#35B5FC" fill-rule="evenodd" mask="url(#mask-8)" points="126.553667 20.2575088 139.830641 20.2575088 139.830641 12.0331833 126.553667 12.0331833"></polygon>
                        <polygon id="Fill-31" stroke="none" fill="#008BD8" fill-rule="evenodd" mask="url(#mask-8)" points="6.21499622 20.2575088 9.32222338 20.2575088 9.32222338 12.0331833 6.21499622 12.0331833"></polygon>
                        <polygon id="Fill-32" stroke="none" fill="#008BD8" fill-rule="evenodd" mask="url(#mask-8)" points="21.1864772 20.2575088 23.4467221 20.2575088 23.4467221 12.0331833 21.1864772 12.0331833"></polygon>
                        <polygon id="Fill-33" stroke="none" fill="#FF6600" fill-rule="evenodd" mask="url(#mask-8)" points="24.8589011 20.2575088 28.8136524 20.2575088 28.8136524 12.0331833 24.8589011 12.0331833"></polygon>
                        <polygon id="Fill-34" stroke="none" fill="#50B4FF" fill-rule="evenodd" mask="url(#mask-8)" points="34.7457793 20.2575088 56.7797806 20.2575088 56.7797806 12.0331833 34.7457793 12.0331833"></polygon>
                        <path d="M79.1627082,12.0331833 C80.8349969,12.0331833 82.2032823,13.4068965 82.2032823,15.0858188 L82.2032823,17.2054174 C82.2032823,18.8843397 80.8349969,20.2575088 79.1627082,20.2575088 L78.8131858,20.2575088 L78.8131858,12.0331833 L79.1627082,12.0331833 Z" id="Fill-35" stroke="none" fill="#35B5FC" fill-rule="evenodd" mask="url(#mask-8)"></path>
                        <path d="M81.9208465,17.205363 L81.9208465,15.0857644 C81.9208465,13.4073861 83.28859,12.0331289 84.9608787,12.0331289 L99.7177692,12.0331289 L99.7177692,20.2574544 L84.9608787,20.2574544 C83.28859,20.2574544 81.9208465,18.8842853 81.9208465,17.205363" id="Fill-36" stroke="none" fill="#35B5FC" fill-rule="evenodd" mask="url(#mask-8)"></path>
                        <path d="M68.9265244,36.9939052 C68.9265244,39.2554995 67.0835388,41.10634 64.8303385,41.10634 L8.05055788,41.10634 C5.79789947,41.10634 3.95491385,39.2554995 3.95491385,36.9939052 C3.95491385,34.7323109 5.79789947,32.8814704 8.05055788,32.8814704 L64.8303385,32.8814704 C67.0835388,32.8814704 68.9265244,34.7323109 68.9265244,36.9939052" id="Fill-37" stroke="none" fill="#AEDEFF" fill-rule="evenodd" mask="url(#mask-8)"></path>
                        <path d="M164.971599,36.9939052 C164.971599,39.2554995 163.128613,41.10634 160.875413,41.10634 L72.7399494,41.10634 C70.487291,41.10634 68.6437635,39.2554995 68.6437635,36.9939052 C68.6437635,34.7323109 70.487291,32.8814704 72.7399494,32.8814704 L160.875413,32.8814704 C163.128613,32.8814704 164.971599,34.7323109 164.971599,36.9939052" id="Fill-38" stroke="none" fill="#AEDEFF" fill-rule="evenodd" mask="url(#mask-8)"></path>
                        <polygon id="Fill-39" stroke="none" fill="#35B5FC" fill-rule="evenodd" mask="url(#mask-8)" points="53.1073567 41.1058503 61.8643834 41.1058503 61.8643834 32.8815248 53.1073567 32.8815248"></polygon>
                        <polygon id="Fill-40" stroke="none" fill="#FFFFFF" fill-rule="evenodd" mask="url(#mask-8)" points="98.8698657 41.1058503 110.451792 41.1058503 110.451792 32.8815248 98.8698657 32.8815248"></polygon>
                        <polygon id="Fill-41" stroke="none" fill="#35B5FC" fill-rule="evenodd" mask="url(#mask-8)" points="114.406543 41.1058503 124.576291 41.1058503 124.576291 32.8815248 114.406543 32.8815248"></polygon>
                        <polygon id="Fill-44" stroke="none" fill="#35B5FC" fill-rule="evenodd" mask="url(#mask-8)" points="138.983117 41.1058503 140.960493 41.1058503 140.960493 32.8815248 138.983117 32.8815248"></polygon>
                        <polygon id="Fill-46" stroke="none" fill="#008BD8" fill-rule="evenodd" mask="url(#mask-8)" points="129.095697 41.1058503 137.005741 41.1058503 137.005741 32.8815248 129.095697 32.8815248"></polygon>
                        <polygon id="Fill-47" stroke="none" fill="#35B5FC" fill-rule="evenodd" mask="url(#mask-8)" points="10.7349442 41.1058503 14.4068262 41.1058503 14.4068262 32.8815248 10.7349442 32.8815248"></polygon>
                        <polygon id="Fill-48" stroke="none" fill="#008BD8" fill-rule="evenodd" mask="url(#mask-8)" points="20.3389531 41.1058503 25.4235559 41.1058503 25.4235559 32.8815248 20.3389531 32.8815248"></polygon>
                        <polygon id="Fill-49" stroke="none" fill="#008BD8" fill-rule="evenodd" mask="url(#mask-8)" points="30.2263732 41.1058503 44.3503301 41.1058503 44.3503301 32.8815248 30.2263732 32.8815248"></polygon>
                        <polygon id="Fill-50" stroke="none" fill="#35B5FC" fill-rule="evenodd" mask="url(#mask-8)" points="44.3503301 41.1058503 47.7404265 41.1058503 47.7404265 32.8815248 44.3503301 32.8815248"></polygon>
                        <polygon id="Fill-51" stroke="none" fill="#50B4FF" fill-rule="evenodd" mask="url(#mask-8)" points="41.8082996 41.1058503 44.9155268 41.1058503 44.9155268 32.8815248 41.8082996 32.8815248"></polygon>
                        <polygon id="Fill-52" stroke="none" fill="#35B5FC" fill-rule="evenodd" mask="url(#mask-8)" points="73.7286372 41.1058503 77.1181918 41.1058503 77.1181918 32.8815248 73.7286372 32.8815248"></polygon>
                        <polygon id="Fill-53" stroke="none" fill="#35B5FC" fill-rule="evenodd" mask="url(#mask-8)" points="89.2658568 41.1058503 91.8078873 41.1058503 91.8078873 32.8815248 89.2658568 32.8815248"></polygon>
                        <polygon id="Fill-54" stroke="none" fill="#008BD8" fill-rule="evenodd" mask="url(#mask-8)" points="81.6386817 41.1058503 87.0056119 41.1058503 87.0056119 32.8815248 81.6386817 32.8815248"></polygon>
                        <path d="M68.9265244,48.4831525 C68.9265244,50.7447468 67.0835388,52.5955872 64.8303385,52.5955872 L8.05055788,52.5955872 C5.79789947,52.5955872 3.95491385,50.7447468 3.95491385,48.4831525 C3.95491385,46.2215581 5.79789947,44.3707177 8.05055788,44.3707177 L64.8303385,44.3707177 C67.0835388,44.3707177 68.9265244,46.2215581 68.9265244,48.4831525" id="Fill-55" stroke="none" fill="#AEDEFF" fill-rule="evenodd" mask="url(#mask-8)"></path>
                        <path d="M164.971599,48.4831525 C164.971599,50.7447468 163.128613,52.5955872 160.875413,52.5955872 L72.7399494,52.5955872 C70.487291,52.5955872 68.6437635,50.7447468 68.6437635,48.4831525 C68.6437635,46.2215581 70.487291,44.3707177 72.7399494,44.3707177 L160.875413,44.3707177 C163.128613,44.3707177 164.971599,46.2215581 164.971599,48.4831525" id="Fill-56" stroke="none" fill="#AEDEFF" fill-rule="evenodd" mask="url(#mask-8)"></path>
                        <polygon id="Fill-57" stroke="none" fill="#35B5FC" fill-rule="evenodd" mask="url(#mask-8)" points="53.1073567 52.5949888 61.8643834 52.5949888 61.8643834 44.3706633 53.1073567 44.3706633"></polygon>
                        <polygon id="Fill-58" stroke="none" fill="#FFFFFF" fill-rule="evenodd" mask="url(#mask-8)" points="98.8698657 52.5949888 110.451792 52.5949888 110.451792 44.3706633 98.8698657 44.3706633"></polygon>
                        <polygon id="Fill-59" stroke="none" fill="#35B5FC" fill-rule="evenodd" mask="url(#mask-8)" points="114.406543 52.5949888 124.576291 52.5949888 124.576291 44.3706633 114.406543 44.3706633"></polygon>
                        <polygon id="Fill-62" stroke="none" fill="#35B5FC" fill-rule="evenodd" mask="url(#mask-8)" points="138.983117 52.5949888 140.960493 52.5949888 140.960493 44.3706633 138.983117 44.3706633"></polygon>
                        <polygon id="Fill-64" stroke="none" fill="#008BD8" fill-rule="evenodd" mask="url(#mask-8)" points="129.095697 52.5949888 137.005741 52.5949888 137.005741 44.3706633 129.095697 44.3706633"></polygon>
                        <polygon id="Fill-65" stroke="none" fill="#35B5FC" fill-rule="evenodd" mask="url(#mask-8)" points="10.7349442 52.5949888 14.4068262 52.5949888 14.4068262 44.3706633 10.7349442 44.3706633"></polygon>
                        <polygon id="Fill-66" stroke="none" fill="#008BD8" fill-rule="evenodd" mask="url(#mask-8)" points="20.3389531 52.5949888 25.4235559 52.5949888 25.4235559 44.3706633 20.3389531 44.3706633"></polygon>
                        <polygon id="Fill-67" stroke="none" fill="#008BD8" fill-rule="evenodd" mask="url(#mask-8)" points="30.2263732 52.5949888 44.3503301 52.5949888 44.3503301 44.3706633 30.2263732 44.3706633"></polygon>
                        <polygon id="Fill-68" stroke="none" fill="#35B5FC" fill-rule="evenodd" mask="url(#mask-8)" points="44.3503301 52.5949888 47.7404265 52.5949888 47.7404265 44.3706633 44.3503301 44.3706633"></polygon>
                        <polygon id="Fill-69" stroke="none" fill="#FF6600" fill-rule="evenodd" mask="url(#mask-8)" points="18.3615775 52.5949888 21.4688046 52.5949888 21.4688046 44.3706633 18.3615775 44.3706633"></polygon>
                        <polygon id="Fill-70" stroke="none" fill="#35B5FC" fill-rule="evenodd" mask="url(#mask-8)" points="73.7286372 52.5949888 77.1181918 52.5949888 77.1181918 44.3706633 73.7286372 44.3706633"></polygon>
                        <polygon id="Fill-71" stroke="none" fill="#35B5FC" fill-rule="evenodd" mask="url(#mask-8)" points="89.2658568 52.5949888 91.8078873 52.5949888 91.8078873 44.3706633 89.2658568 44.3706633"></polygon>
                        <polygon id="Fill-72" stroke="none" fill="#008BD8" fill-rule="evenodd" mask="url(#mask-8)" points="81.6386817 52.5949888 87.0056119 52.5949888 87.0056119 44.3706633 81.6386817 44.3706633"></polygon>
                        <path d="M100.282316,69.3311131 C100.282316,71.5927074 98.43933,73.4435479 96.1861297,73.4435479 L33.7570915,73.4435479 C31.5038911,73.4435479 29.6609055,71.5927074 29.6609055,69.3311131 C29.6609055,67.0695188 31.5038911,65.2186783 33.7570915,65.2186783 L96.1861297,65.2186783 C98.43933,65.2186783 100.282316,67.0695188 100.282316,69.3311131" id="Fill-73" stroke="none" fill="#AEDEFF" fill-rule="evenodd" mask="url(#mask-8)"></path>
                        <path d="M164.971599,69.3311131 C164.971599,71.5927074 163.128613,73.4435479 160.875413,73.4435479 L104.096174,73.4435479 C101.842974,73.4435479 99.9999882,71.5927074 99.9999882,69.3311131 C99.9999882,67.0695188 101.842974,65.2186783 104.096174,65.2186783 L160.875413,65.2186783 C163.128613,65.2186783 164.971599,67.0695188 164.971599,69.3311131" id="Fill-74" stroke="none" fill="#AEDEFF" fill-rule="evenodd" mask="url(#mask-8)"></path>
                        <polygon id="Fill-75" stroke="none" fill="#35B5FC" fill-rule="evenodd" mask="url(#mask-8)" points="74.2938339 73.4433303 84.1807121 73.4433303 84.1807121 65.2190048 74.2938339 65.2190048"></polygon>
                        <polygon id="Fill-76" stroke="none" fill="#FFFFFF" fill-rule="evenodd" mask="url(#mask-8)" points="110.734661 73.4433303 116.101592 73.4433303 116.101592 65.2190048 110.734661 65.2190048"></polygon>
                        <polygon id="Fill-77" stroke="none" fill="#35B5FC" fill-rule="evenodd" mask="url(#mask-8)" points="119.491688 73.4433303 125.423815 73.4433303 125.423815 65.2190048 119.491688 65.2190048"></polygon>
                        <polygon id="Fill-78" stroke="none" fill="#35B5FC" fill-rule="evenodd" mask="url(#mask-8)" points="137.005741 73.4433303 143.502523 73.4433303 143.502523 65.2190048 137.005741 65.2190048"></polygon>
                        <polygon id="Fill-81" stroke="none" fill="#35B5FC" fill-rule="evenodd" mask="url(#mask-8)" points="132.203466 73.4433303 133.898514 73.4433303 133.898514 65.2190048 132.203466 65.2190048"></polygon>
                        <polygon id="Fill-82" stroke="none" fill="#008BD8" fill-rule="evenodd" mask="url(#mask-8)" points="46.610575 73.4433303 57.062108 73.4433303 57.062108 65.2190048 46.610575 65.2190048"></polygon>
                        <polygon id="Fill-83" stroke="none" fill="#008BD8" fill-rule="evenodd" mask="url(#mask-8)" points="61.5815141 73.4433303 64.4064138 73.4433303 64.4064138 65.2190048 61.5815141 65.2190048"></polygon>
                        <polygon id="Fill-84" stroke="none" fill="#FF6600" fill-rule="evenodd" mask="url(#mask-8)" points="44.3503301 73.4433303 47.1752298 73.4433303 47.1752298 65.2190048 44.3503301 65.2190048"></polygon>
                        <polygon id="Fill-85" stroke="none" fill="#FF6600" fill-rule="evenodd" mask="url(#mask-8)" points="67.7965103 73.4433303 70.6214101 73.4433303 70.6214101 65.2190048 67.7965103 65.2190048"></polygon>
                        <path d="M100.282316,80.820306 C100.282316,83.0819003 98.43933,84.9327408 96.1861297,84.9327408 L33.7570915,84.9327408 C31.5038911,84.9327408 29.6609055,83.0819003 29.6609055,80.820306 C29.6609055,78.5587117 31.5038911,76.7078712 33.7570915,76.7078712 L96.1861297,76.7078712 C98.43933,76.7078712 100.282316,78.5587117 100.282316,80.820306" id="Fill-89" stroke="none" fill="#AEDEFF" fill-rule="evenodd" mask="url(#mask-8)"></path>
                        <path d="M164.971599,80.820306 C164.971599,83.0819003 163.128613,84.9327408 160.875413,84.9327408 L104.096174,84.9327408 C101.842974,84.9327408 99.9999882,83.0819003 99.9999882,80.820306 C99.9999882,78.5587117 101.842974,76.7078712 104.096174,76.7078712 L160.875413,76.7078712 C163.128613,76.7078712 164.971599,78.5587117 164.971599,80.820306" id="Fill-90" stroke="none" fill="#AEDEFF" fill-rule="evenodd" mask="url(#mask-8)"></path>
                        <polygon id="Fill-91" stroke="none" fill="#35B5FC" fill-rule="evenodd" mask="url(#mask-8)" points="74.2938339 84.9324688 84.1807121 84.9324688 84.1807121 76.7081432 74.2938339 76.7081432"></polygon>
                        <polygon id="Fill-92" stroke="none" fill="#FFFFFF" fill-rule="evenodd" mask="url(#mask-8)" points="110.734661 84.9324688 116.101592 84.9324688 116.101592 76.7081432 110.734661 76.7081432"></polygon>
                        <polygon id="Fill-93" stroke="none" fill="#35B5FC" fill-rule="evenodd" mask="url(#mask-8)" points="119.491688 84.9324688 125.423815 84.9324688 125.423815 76.7081432 119.491688 76.7081432"></polygon>
                        <polygon id="Fill-94" stroke="none" fill="#35B5FC" fill-rule="evenodd" mask="url(#mask-8)" points="137.005741 84.9324688 143.502523 84.9324688 143.502523 76.7081432 137.005741 76.7081432"></polygon>
                        <polygon id="Fill-97" stroke="none" fill="#35B5FC" fill-rule="evenodd" mask="url(#mask-8)" points="132.203466 84.9324688 133.898514 84.9324688 133.898514 76.7081432 132.203466 76.7081432"></polygon>
                        <polygon id="Fill-98" stroke="none" fill="#008BD8" fill-rule="evenodd" mask="url(#mask-8)" points="46.610575 84.9324688 57.062108 84.9324688 57.062108 76.7081432 46.610575 76.7081432"></polygon>
                        <polygon id="Fill-99" stroke="none" fill="#008BD8" fill-rule="evenodd" mask="url(#mask-8)" points="61.5815141 84.9324688 64.4064138 84.9324688 64.4064138 76.7081432 61.5815141 76.7081432"></polygon>
                        <path d="M74.6026058,101.668811 C74.6026058,103.930405 72.7596202,105.781245 70.5064199,105.781245 L38.5855404,105.781245 C36.332882,105.781245 34.4898963,103.930405 34.4898963,101.668811 C34.4898963,99.4072164 36.332882,97.5558319 38.5855404,97.5558319 L70.5064199,97.5558319 C72.7596202,97.5558319 74.6026058,99.4072164 74.6026058,101.668811" id="Fill-103" stroke="none" fill="#AEDEFF" fill-rule="evenodd" mask="url(#mask-8)"></path>
                        <path d="M164.715499,101.668811 C164.715499,103.930405 162.872513,105.781245 160.619313,105.781245 L78.4159766,105.781245 C76.1633182,105.781245 74.3203326,103.930405 74.3203326,101.668811 C74.3203326,99.4072164 76.1633182,97.5558319 78.4159766,97.5558319 L160.619313,97.5558319 C162.872513,97.5558319 164.715499,99.4072164 164.715499,101.668811" id="Fill-104" stroke="none" fill="#AEDEFF" fill-rule="evenodd" mask="url(#mask-8)"></path>
                        <polygon id="Fill-105" stroke="none" fill="#35B5FC" fill-rule="evenodd" mask="url(#mask-8)" points="54.8289578 105.78081 57.0886609 105.78081 57.0886609 97.5559407 54.8289578 97.5559407"></polygon>
                        <polygon id="Fill-106" stroke="none" fill="#35B5FC" fill-rule="evenodd" mask="url(#mask-8)" points="64.715836 105.78081 70.3656355 105.78081 70.3656355 97.5559407 64.715836 97.5559407"></polygon>
                        <polygon id="Fill-107" stroke="none" fill="#35B5FC" fill-rule="evenodd" mask="url(#mask-8)" points="80.5348411 105.78081 91.8344401 105.78081 91.8344401 97.5559407 80.5348411 97.5559407"></polygon>
                        <polygon id="Fill-108" stroke="none" fill="#EDEDED" fill-rule="evenodd" mask="url(#mask-8)" points="96.3538462 105.78081 101.438449 105.78081 101.438449 97.5559407 96.3538462 97.5559407"></polygon>
                        <polygon id="Fill-109" stroke="none" fill="#35B5FC" fill-rule="evenodd" mask="url(#mask-8)" points="103.134039 105.78081 106.806463 105.78081 106.806463 97.5559407 103.134039 97.5559407"></polygon>
                        <polygon id="Fill-110" stroke="none" fill="#35B5FC" fill-rule="evenodd" mask="url(#mask-8)" points="107.936315 105.78081 116.693341 105.78081 116.693341 97.5559407 107.936315 97.5559407"></polygon>
                        <polygon id="Fill-111" stroke="none" fill="#35B5FC" fill-rule="evenodd" mask="url(#mask-8)" points="135.054919 105.78081 137.596949 105.78081 137.596949 97.5559407 135.054919 97.5559407"></polygon>
                        <polygon id="Fill-114" stroke="none" fill="#008BD8" fill-rule="evenodd" mask="url(#mask-8)" points="119.518241 105.78081 132.512346 105.78081 132.512346 97.5559407 119.518241 97.5559407"></polygon>
                        <polygon id="Fill-115" stroke="none" fill="#008BD8" fill-rule="evenodd" mask="url(#mask-8)" points="43.8116862 105.78081 50.8742065 105.78081 50.8742065 97.5559407 43.8116862 97.5559407"></polygon>
                        <path d="M74.6026058,113.158058 C74.6026058,115.419652 72.7596202,117.270493 70.5064199,117.270493 L38.5855404,117.270493 C36.332882,117.270493 34.4898963,115.419652 34.4898963,113.158058 C34.4898963,110.89592 36.332882,109.045079 38.5855404,109.045079 L70.5064199,109.045079 C72.7596202,109.045079 74.6026058,110.89592 74.6026058,113.158058" id="Fill-116" stroke="none" fill="#AEDEFF" fill-rule="evenodd" mask="url(#mask-8)"></path>
                        <path d="M164.715499,113.158058 C164.715499,115.419652 162.872513,117.270493 160.619313,117.270493 L78.4159766,117.270493 C76.1633182,117.270493 74.3203326,115.419652 74.3203326,113.158058 C74.3203326,110.89592 76.1633182,109.045079 78.4159766,109.045079 L160.619313,109.045079 C162.872513,109.045079 164.715499,110.89592 164.715499,113.158058" id="Fill-117" stroke="none" fill="#AEDEFF" fill-rule="evenodd" mask="url(#mask-8)"></path>
                        <polygon id="Fill-118" stroke="none" fill="#35B5FC" fill-rule="evenodd" mask="url(#mask-8)" points="54.8289578 117.269949 57.0886609 117.269949 57.0886609 109.045079 54.8289578 109.045079"></polygon>
                        <polygon id="Fill-119" stroke="none" fill="#35B5FC" fill-rule="evenodd" mask="url(#mask-8)" points="64.715836 117.269949 70.3656355 117.269949 70.3656355 109.045079 64.715836 109.045079"></polygon>
                        <polygon id="Fill-120" stroke="none" fill="#35B5FC" fill-rule="evenodd" mask="url(#mask-8)" points="80.5348411 117.269949 91.8344401 117.269949 91.8344401 109.045079 80.5348411 109.045079"></polygon>
                        <polygon id="Fill-121" stroke="none" fill="#EDEDED" fill-rule="evenodd" mask="url(#mask-8)" points="96.3538462 117.269949 101.438449 117.269949 101.438449 109.045079 96.3538462 109.045079"></polygon>
                        <polygon id="Fill-122" stroke="none" fill="#35B5FC" fill-rule="evenodd" mask="url(#mask-8)" points="103.134039 117.269949 106.806463 117.269949 106.806463 109.045079 103.134039 109.045079"></polygon>
                        <polygon id="Fill-123" stroke="none" fill="#35B5FC" fill-rule="evenodd" mask="url(#mask-8)" points="107.936315 117.269949 116.693341 117.269949 116.693341 109.045079 107.936315 109.045079"></polygon>
                        <polygon id="Fill-124" stroke="none" fill="#35B5FC" fill-rule="evenodd" mask="url(#mask-8)" points="135.054919 117.269949 137.596949 117.269949 137.596949 109.045079 135.054919 109.045079"></polygon>
                        <polygon id="Fill-127" stroke="none" fill="#008BD8" fill-rule="evenodd" mask="url(#mask-8)" points="119.518241 117.269949 132.512346 117.269949 132.512346 109.045079 119.518241 109.045079"></polygon>
                        <polygon id="Fill-128" stroke="none" fill="#008BD8" fill-rule="evenodd" mask="url(#mask-8)" points="43.8116862 117.269949 50.8742065 117.269949 50.8742065 109.045079 43.8116862 109.045079"></polygon>
                        <path d="M77.9926481,134.006019 C77.9926481,136.267613 76.1496625,138.118453 73.8964622,138.118453 L43.6706309,138.118453 C41.4179725,138.118453 39.574445,136.267613 39.574445,134.006019 C39.574445,131.744424 41.4179725,129.893584 43.6706309,129.893584 L73.8964622,129.893584 C76.1496625,129.893584 77.9926481,131.744424 77.9926481,134.006019" id="Fill-129" stroke="none" fill="#AEDEFF" fill-rule="evenodd" mask="url(#mask-8)"></path>
                        <path d="M164.715499,134.006019 C164.715499,136.267613 162.872513,138.118453 160.619313,138.118453 L81.8060731,138.118453 C79.5534147,138.118453 77.7098872,136.267613 77.7098872,134.006019 C77.7098872,131.744424 79.5534147,129.893584 81.8060731,129.893584 L160.619313,129.893584 C162.872513,129.893584 164.715499,131.744424 164.715499,134.006019" id="Fill-130" stroke="none" fill="#AEDEFF" fill-rule="evenodd" mask="url(#mask-8)"></path>
                        <polygon id="Fill-131" stroke="none" fill="#008BD8" fill-rule="evenodd" mask="url(#mask-8)" points="55.3936126 138.11829 67.5407358 138.11829 67.5407358 129.893965 55.3936126 129.893965"></polygon>
                        <polygon id="Fill-132" stroke="none" fill="#35B5FC" fill-rule="evenodd" mask="url(#mask-8)" points="84.7719198 138.11829 89.8565226 138.11829 89.8565226 129.893965 84.7719198 129.893965"></polygon>
                        <polygon id="Fill-133" stroke="none" fill="#EDEDED" fill-rule="evenodd" mask="url(#mask-8)" points="120.647551 138.11829 130.817298 138.11829 130.817298 129.893965 120.647551 129.893965"></polygon>
                        <polygon id="Fill-134" stroke="none" fill="#35B5FC" fill-rule="evenodd" mask="url(#mask-8)" points="97.2013703 138.11829 106.806463 138.11829 106.806463 129.893965 97.2013703 129.893965"></polygon>
                        <polygon id="Fill-135" stroke="none" fill="#008BD8" fill-rule="evenodd" mask="url(#mask-8)" points="108.500969 138.11829 120.648092 138.11829 120.648092 129.893965 108.500969 129.893965"></polygon>
                        <polygon id="Fill-138" stroke="none" fill="#008BD8" fill-rule="evenodd" mask="url(#mask-8)" points="50.8742065 138.11829 53.1339096 138.11829 53.1339096 129.893965 50.8742065 129.893965"></polygon>
                        <path d="M74.9519115,129.893802 C76.6242001,129.893802 77.9924855,131.266971 77.9924855,132.945893 L77.9924855,135.066036 C77.9924855,136.744958 76.6242001,138.118127 74.9519115,138.118127 L74.6023891,138.118127 L74.6023891,129.893802 L74.9519115,129.893802 Z" id="Fill-139" stroke="none" fill="#35B5FC" fill-rule="evenodd" mask="url(#mask-8)"></path>
                        <polygon id="Fill-140" stroke="none" fill="#FF6600" fill-rule="evenodd" mask="url(#mask-8)" points="100.873794 138.11829 102.568842 138.11829 102.568842 129.893965 100.873794 129.893965"></polygon>
                        <polygon id="Fill-141" stroke="none" fill="#FF6600" fill-rule="evenodd" mask="url(#mask-8)" points="124.602302 138.11829 127.992398 138.11829 127.992398 129.893965 124.602302 129.893965"></polygon>
                        <path d="M77.9926481,145.495266 C77.9926481,147.75686 76.1496625,149.607701 73.8964622,149.607701 L43.6706309,149.607701 C41.4179725,149.607701 39.574445,147.75686 39.574445,145.495266 C39.574445,143.233672 41.4179725,141.382831 43.6706309,141.382831 L73.8964622,141.382831 C76.1496625,141.382831 77.9926481,143.233672 77.9926481,145.495266" id="Fill-142" stroke="none" fill="#AEDEFF" fill-rule="evenodd" mask="url(#mask-8)"></path>
                        <path d="M164.715499,145.495266 C164.715499,147.75686 162.872513,149.607701 160.619313,149.607701 L81.8060731,149.607701 C79.5534147,149.607701 77.7098872,147.75686 77.7098872,145.495266 C77.7098872,143.233672 79.5534147,141.382831 81.8060731,141.382831 L160.619313,141.382831 C162.872513,141.382831 164.715499,143.233672 164.715499,145.495266" id="Fill-143" stroke="none" fill="#AEDEFF" fill-rule="evenodd" mask="url(#mask-8)"></path>
                        <polygon id="Fill-144" stroke="none" fill="#008BD8" fill-rule="evenodd" mask="url(#mask-8)" points="55.3936126 149.607429 67.5407358 149.607429 67.5407358 141.383103 55.3936126 141.383103"></polygon>
                        <polygon id="Fill-145" stroke="none" fill="#35B5FC" fill-rule="evenodd" mask="url(#mask-8)" points="84.7719198 149.607429 89.8565226 149.607429 89.8565226 141.383103 84.7719198 141.383103"></polygon>
                        <polygon id="Fill-146" stroke="none" fill="#EDEDED" fill-rule="evenodd" mask="url(#mask-8)" points="120.647551 149.607429 130.817298 149.607429 130.817298 141.383103 120.647551 141.383103"></polygon>
                        <polygon id="Fill-147" stroke="none" fill="#35B5FC" fill-rule="evenodd" mask="url(#mask-8)" points="97.2013703 149.607429 106.806463 149.607429 106.806463 141.383103 97.2013703 141.383103"></polygon>
                        <polygon id="Fill-148" stroke="none" fill="#008BD8" fill-rule="evenodd" mask="url(#mask-8)" points="108.500969 149.607429 120.648092 149.607429 120.648092 141.383103 108.500969 141.383103"></polygon>
                        <polygon id="Fill-151" stroke="none" fill="#008BD8" fill-rule="evenodd" mask="url(#mask-8)" points="50.8742065 149.607429 53.1339096 149.607429 53.1339096 141.383103 50.8742065 141.383103"></polygon>
                        <path d="M74.9519115,141.383049 C76.6242001,141.383049 77.9924855,142.756218 77.9924855,144.43514 L77.9924855,146.555283 C77.9924855,148.234205 76.6242001,149.607374 74.9519115,149.607374 L74.6023891,149.607374 L74.6023891,141.383049 L74.9519115,141.383049 Z" id="Fill-152" stroke="none" fill="#35B5FC" fill-rule="evenodd" mask="url(#mask-8)"></path>
                        <polygon id="Fill-153" stroke="none" fill="#50B4FF" fill-rule="evenodd" mask="url(#mask-8)" points="70.3656355 149.607429 74.6027142 149.607429 74.6027142 141.383103 70.3656355 141.383103"></polygon>
                        <path d="M165.56324,166.343227 C165.56324,168.605365 163.720254,170.456205 161.467054,170.456205 L97.625295,170.456205 C95.3726366,170.456205 93.529109,168.605365 93.529109,166.343227 C93.529109,164.081632 95.3726366,162.230792 97.625295,162.230792 L161.467054,162.230792 C163.720254,162.230792 165.56324,164.081632 165.56324,166.343227" id="Fill-155" stroke="none" fill="#AEDEFF" fill-rule="evenodd" mask="url(#mask-8)"></path>
                        <polygon id="Fill-156" stroke="none" fill="#008BD8" fill-rule="evenodd" mask="url(#mask-8)" points="103.981563 170.45577 107.088249 170.45577 107.088249 162.230901 103.981563 162.230901"></polygon>
                        <polygon id="Fill-157" stroke="none" fill="#35B5FC" fill-rule="evenodd" mask="url(#mask-8)" points="110.195476 170.45577 116.975669 170.45577 116.975669 162.230901 110.195476 162.230901"></polygon>
                        <polygon id="Fill-158" stroke="none" fill="#008BD8" fill-rule="evenodd" mask="url(#mask-8)" points="118.670175 170.45577 121.495075 170.45577 121.495075 162.230901 118.670175 162.230901"></polygon>
                        <polygon id="Fill-160" stroke="none" fill="#FF6600" fill-rule="evenodd" mask="url(#mask-8)" points="138.726801 170.45577 142.116897 170.45577 142.116897 162.230901 138.726801 162.230901"></polygon>
                        <polygon id="Fill-161" stroke="none" fill="#008BD8" fill-rule="evenodd" mask="url(#mask-8)" points="123.75532 170.45577 136.467098 170.45577 136.467098 162.230901 123.75532 162.230901"></polygon>
                        <path d="M96.5695205,162.231009 C94.8972319,162.231009 93.5294884,163.604723 93.5294884,165.283645 L93.5294884,167.403244 C93.5294884,169.082166 94.8972319,170.455879 96.5695205,170.455879 L101.156664,170.455879 L101.156664,162.231009 L96.5695205,162.231009 Z" id="Fill-163" stroke="none" fill="#35B5FC" fill-rule="evenodd" mask="url(#mask-8)"></path>
                        <path d="M93.81187,166.343227 C93.81187,168.605365 91.9688843,170.456205 89.715684,170.456205 L46.7775329,170.456205 C44.5248745,170.456205 42.6818889,168.605365 42.6818889,166.343227 C42.6818889,164.081632 44.5248745,162.230792 46.7775329,162.230792 L89.715684,162.230792 C91.9688843,162.230792 93.81187,164.081632 93.81187,166.343227" id="Fill-164" stroke="none" fill="#AEDEFF" fill-rule="evenodd" mask="url(#mask-8)"></path>
                        <polygon id="Fill-165" stroke="none" fill="#35B5FC" fill-rule="evenodd" mask="url(#mask-8)" points="57.3709883 170.45577 67.2578665 170.45577 67.2578665 162.230901 57.3709883 162.230901"></polygon>
                        <polygon id="Fill-166" stroke="none" fill="#008BD8" fill-rule="evenodd" mask="url(#mask-8)" points="75.7325657 170.45577 77.1447447 170.45577 77.1447447 162.230901 75.7325657 162.230901"></polygon>
                        <polygon id="Fill-167" stroke="none" fill="#008BD8" fill-rule="evenodd" mask="url(#mask-8)" points="48.896289 170.45577 50.5913372 170.45577 50.5913372 162.230901 48.896289 162.230901"></polygon>
                        <polygon id="Fill-168" stroke="none" fill="#008BD8" fill-rule="evenodd" mask="url(#mask-8)" points="80.5348411 170.45577 89.5747371 170.45577 89.5747371 162.230901 80.5348411 162.230901"></polygon>
                        <polygon id="Fill-169" stroke="none" fill="#50B4FF" fill-rule="evenodd" mask="url(#mask-8)" points="59.6306913 170.45577 63.0207878 170.45577 63.0207878 162.230901 59.6306913 162.230901"></polygon>
                        <path d="M165.56324,177.832474 C165.56324,180.094612 163.720254,181.945453 161.467054,181.945453 L97.625295,181.945453 C95.3726366,181.945453 93.529109,180.094612 93.529109,177.832474 C93.529109,175.57088 95.3726366,173.720039 97.625295,173.720039 L161.467054,173.720039 C163.720254,173.720039 165.56324,175.57088 165.56324,177.832474" id="Fill-170" stroke="none" fill="#AEDEFF" fill-rule="evenodd" mask="url(#mask-8)"></path>
                        <polygon id="Fill-171" stroke="none" fill="#008BD8" fill-rule="evenodd" mask="url(#mask-8)" points="103.981563 181.944909 107.088249 181.944909 107.088249 173.720039 103.981563 173.720039"></polygon>
                        <polygon id="Fill-172" stroke="none" fill="#35B5FC" fill-rule="evenodd" mask="url(#mask-8)" points="110.195476 181.944909 116.975669 181.944909 116.975669 173.720039 110.195476 173.720039"></polygon>
                        <polygon id="Fill-173" stroke="none" fill="#008BD8" fill-rule="evenodd" mask="url(#mask-8)" points="118.670175 181.944909 121.495075 181.944909 121.495075 173.720039 118.670175 173.720039"></polygon>
                        <polygon id="Fill-175" stroke="none" fill="#FF6600" fill-rule="evenodd" mask="url(#mask-8)" points="138.726801 181.944909 142.116897 181.944909 142.116897 173.720039 138.726801 173.720039"></polygon>
                        <polygon id="Fill-176" stroke="none" fill="#008BD8" fill-rule="evenodd" mask="url(#mask-8)" points="123.75532 181.944909 136.467098 181.944909 136.467098 173.720039 123.75532 173.720039"></polygon>
                        <path d="M96.5695205,173.720257 C94.8972319,173.720257 93.5294884,175.09397 93.5294884,176.772892 L93.5294884,178.892491 C93.5294884,180.571413 94.8972319,181.945126 96.5695205,181.945126 L101.156664,181.945126 L101.156664,173.720257 L96.5695205,173.720257 Z" id="Fill-178" stroke="none" fill="#35B5FC" fill-rule="evenodd" mask="url(#mask-8)"></path>
                        <path d="M93.81187,177.832474 C93.81187,180.094612 91.9688843,181.945453 89.715684,181.945453 L46.7775329,181.945453 C44.5248745,181.945453 42.6818889,180.094612 42.6818889,177.832474 C42.6818889,175.57088 44.5248745,173.720039 46.7775329,173.720039 L89.715684,173.720039 C91.9688843,173.720039 93.81187,175.57088 93.81187,177.832474" id="Fill-179" stroke="none" fill="#AEDEFF" fill-rule="evenodd" mask="url(#mask-8)"></path>
                        <polygon id="Fill-180" stroke="none" fill="#35B5FC" fill-rule="evenodd" mask="url(#mask-8)" points="57.3709883 181.944909 67.2578665 181.944909 67.2578665 173.720039 57.3709883 173.720039"></polygon>
                        <polygon id="Fill-181" stroke="none" fill="#008BD8" fill-rule="evenodd" mask="url(#mask-8)" points="75.7325657 181.944909 77.1447447 181.944909 77.1447447 173.720039 75.7325657 173.720039"></polygon>
                        <polygon id="Fill-182" stroke="none" fill="#008BD8" fill-rule="evenodd" mask="url(#mask-8)" points="48.896289 181.944909 50.5913372 181.944909 50.5913372 173.720039 48.896289 173.720039"></polygon>
                        <polygon id="Fill-183" stroke="none" fill="#008BD8" fill-rule="evenodd" mask="url(#mask-8)" points="80.5348411 181.944909 89.5747371 181.944909 89.5747371 173.720039 80.5348411 173.720039"></polygon>
                        <polygon id="Fill-184" stroke="none" fill="#50B4FF" fill-rule="evenodd" mask="url(#mask-8)" points="57.6533157 181.944909 61.0428702 181.944909 61.0428702 173.720039 57.6533157 173.720039"></polygon>
                        <polygon id="Fill-185" stroke="none" fill="#FF6600" fill-rule="evenodd" mask="url(#mask-8)" points="46.3542586 181.944909 52.0040581 181.944909 52.0040581 173.720039 46.3542586 173.720039"></polygon>
                        <path d="M168.388085,198.680924 C168.388085,200.942519 166.5451,202.793359 164.2919,202.793359 L105.817071,202.793359 C103.564412,202.793359 101.721427,200.942519 101.721427,198.680924 C101.721427,196.41933 103.564412,194.568489 105.817071,194.568489 L164.2919,194.568489 C166.5451,194.568489 168.388085,196.41933 168.388085,198.680924" id="Fill-186" stroke="none" fill="#AEDEFF" fill-rule="evenodd" mask="url(#mask-8)"></path>
                        <polygon id="Fill-187" stroke="none" fill="#008BD8" fill-rule="evenodd" mask="url(#mask-8)" points="111.608197 202.79325 124.602302 202.79325 124.602302 194.568925 111.608197 194.568925"></polygon>
                        <polygon id="Fill-188" stroke="none" fill="#50B4FF" fill-rule="evenodd" mask="url(#mask-8)" points="109.913148 202.79325 114.433096 202.79325 114.433096 194.568925 109.913148 194.568925"></polygon>
                        <polygon id="Fill-189" stroke="none" fill="#35B5FC" fill-rule="evenodd" mask="url(#mask-8)" points="126.29735 202.79325 133.077001 202.79325 133.077001 194.568925 126.29735 194.568925"></polygon>
                        <polygon id="Fill-191" stroke="none" fill="#008BD8" fill-rule="evenodd" mask="url(#mask-8)" points="139.857194 202.79325 144.094273 202.79325 144.094273 194.568925 139.857194 194.568925"></polygon>
                        <path d="M102.003808,198.680924 C102.003808,200.942519 100.160823,202.793359 97.9076224,202.793359 L62.8795157,202.793359 C60.6268573,202.793359 58.7833298,200.942519 58.7833298,198.680924 C58.7833298,196.41933 60.6268573,194.568489 62.8795157,194.568489 L97.9076224,194.568489 C100.160823,194.568489 102.003808,196.41933 102.003808,198.680924" id="Fill-193" stroke="none" fill="#AEDEFF" fill-rule="evenodd" mask="url(#mask-8)"></path>
                        <polygon id="Fill-194" stroke="none" fill="#35B5FC" fill-rule="evenodd" mask="url(#mask-8)" points="65.8451456 202.79325 77.7099414 202.79325 77.7099414 194.568925 65.8451456 194.568925"></polygon>
                        <polygon id="Fill-195" stroke="none" fill="#008BD8" fill-rule="evenodd" mask="url(#mask-8)" points="86.7498373 202.79325 90.4217193 202.79325 90.4217193 194.568925 86.7498373 194.568925"></polygon>
                        <polygon id="Fill-196" stroke="none" fill="#008BD8" fill-rule="evenodd" mask="url(#mask-8)" points="94.6593399 202.79325 97.7665671 202.79325 97.7665671 194.568925 94.6593399 194.568925"></polygon>
                        <path d="M168.388085,210.170171 C168.388085,212.431766 166.5451,214.282606 164.2919,214.282606 L105.817071,214.282606 C103.564412,214.282606 101.721427,212.431766 101.721427,210.170171 C101.721427,207.908577 103.564412,206.057737 105.817071,206.057737 L164.2919,206.057737 C166.5451,206.057737 168.388085,207.908577 168.388085,210.170171" id="Fill-197" stroke="none" fill="#AEDEFF" fill-rule="evenodd" mask="url(#mask-8)"></path>
                        <polygon id="Fill-198" stroke="none" fill="#008BD8" fill-rule="evenodd" mask="url(#mask-8)" points="111.608197 214.282389 124.602302 214.282389 124.602302 206.058063 111.608197 206.058063"></polygon>
                        <polygon id="Fill-199" stroke="none" fill="#50B4FF" fill-rule="evenodd" mask="url(#mask-8)" points="104.828545 214.282389 110.195476 214.282389 110.195476 206.058063 104.828545 206.058063"></polygon>
                        <polygon id="Fill-200" stroke="none" fill="#35B5FC" fill-rule="evenodd" mask="url(#mask-8)" points="126.29735 214.282389 133.077001 214.282389 133.077001 206.058063 126.29735 206.058063"></polygon>
                        <polygon id="Fill-202" stroke="none" fill="#008BD8" fill-rule="evenodd" mask="url(#mask-8)" points="139.857194 214.282389 144.094273 214.282389 144.094273 206.058063 139.857194 206.058063"></polygon>
                        <path d="M102.003808,210.170171 C102.003808,212.431766 100.160823,214.282606 97.9076224,214.282606 L62.8795157,214.282606 C60.6268573,214.282606 58.7833298,212.431766 58.7833298,210.170171 C58.7833298,207.908577 60.6268573,206.057737 62.8795157,206.057737 L97.9076224,206.057737 C100.160823,206.057737 102.003808,207.908577 102.003808,210.170171" id="Fill-204" stroke="none" fill="#AEDEFF" fill-rule="evenodd" mask="url(#mask-8)"></path>
                        <polygon id="Fill-205" stroke="none" fill="#35B5FC" fill-rule="evenodd" mask="url(#mask-8)" points="65.8451456 214.282389 77.7099414 214.282389 77.7099414 206.058063 65.8451456 206.058063"></polygon>
                        <polygon id="Fill-206" stroke="none" fill="#008BD8" fill-rule="evenodd" mask="url(#mask-8)" points="86.7498373 214.282389 90.4217193 214.282389 90.4217193 206.058063 86.7498373 206.058063"></polygon>
                        <polygon id="Fill-207" stroke="none" fill="#008BD8" fill-rule="evenodd" mask="url(#mask-8)" points="94.6593399 214.282389 97.7665671 214.282389 97.7665671 206.058063 94.6593399 206.058063"></polygon>
                    </g>
                </g>
            </g>
        </g>
    </g>
</svg>